<?xml version="1.0" encoding="UTF-8" standalone="no"?>
<!-- Created with Inkscape (http://www.inkscape.org/) -->

<svg
   version="1.1"
   id="svg2"
   width="477.62668"
   height="158.32001"
   viewBox="0 0 477.62668 158.32001"
   sodipodi:docname="JADES_horizontal_greens_onwhite.eps"
   xmlns:inkscape="http://www.inkscape.org/namespaces/inkscape"
   xmlns:sodipodi="http://sodipodi.sourceforge.net/DTD/sodipodi-0.dtd"
   xmlns="http://www.w3.org/2000/svg"
   xmlns:svg="http://www.w3.org/2000/svg">
  <defs
     id="defs6" />
  <sodipodi:namedview
     id="namedview4"
     pagecolor="#ffffff"
     bordercolor="#000000"
     borderopacity="0.25"
     inkscape:showpageshadow="2"
     inkscape:pageopacity="0.0"
     inkscape:pagecheckerboard="0"
     inkscape:deskcolor="#d1d1d1" />
  <g
     id="g8"
     inkscape:groupmode="layer"
     inkscape:label="ink_ext_XXXXXX"
     transform="matrix(1.3333333,0,0,-1.3333333,0,158.32)">
    <g
       id="g10"
       transform="scale(0.1)">
      <path
         d="m 2105.33,719.941 v 25.43 h 12.8 c 3.02,0 5.34,0.859 6.97,2.59 1.64,1.727 2.46,4.004 2.46,6.824 v 107.738 h 25.42 V 754.785 c 0,-10.418 -3.14,-18.832 -9.42,-25.238 -6.28,-6.402 -14.75,-9.606 -25.43,-9.606 h -12.8"
         style="fill:#1b5034;fill-opacity:1;fill-rule:nonzero;stroke:none"
         id="path12" />
      <path
         d="m 2188.21,721.262 -17.33,141.261 h 25.99 l 9.98,-97.75 h -3.02 l 15.64,97.75 h 20.54 l 15.62,-97.75 h -3.01 l 9.98,97.75 h 26 l -17.33,-141.261 h -27.5 l -16.01,84.945 h 4.14 l -16.19,-84.945 h -27.5"
         style="fill:#1b5034;fill-opacity:1;fill-rule:nonzero;stroke:none"
         id="path14" />
      <path
         d="m 2336.06,718.25 c -10.6,0 -19.07,3.199 -25.38,9.602 -6.31,6.406 -9.46,14.82 -9.46,25.242 v 7.531 h 25.43 v -7.531 c 0,-2.824 0.81,-5.106 2.45,-6.828 1.63,-1.731 3.95,-2.594 6.96,-2.594 3.02,0 5.34,0.863 6.97,2.594 1.64,1.722 2.46,4.004 2.46,6.828 v 14.504 c 0,1.632 -0.07,2.918 -0.2,3.859 -0.13,0.941 -0.45,1.691 -0.99,2.262 -0.53,0.562 -1.44,1.082 -2.73,1.551 -1.28,0.472 -3.12,1.054 -5.51,1.742 -8.72,2.636 -15.48,4.883 -20.24,6.734 -4.78,1.852 -8.2,3.848 -10.27,5.981 -2.07,2.132 -3.31,4.914 -3.72,8.336 -0.41,3.421 -0.61,8.023 -0.61,13.796 v 18.836 c 0,10.489 3.15,18.914 9.46,25.285 6.31,6.375 14.78,9.563 25.38,9.563 10.68,0 19.15,-3.188 25.43,-9.563 6.28,-6.371 9.43,-14.796 9.43,-25.285 v -7.535 h -25.43 v 7.535 c 0,2.828 -0.82,5.102 -2.46,6.828 -1.63,1.727 -3.95,2.59 -6.97,2.59 -3.01,0 -5.33,-0.863 -6.96,-2.59 -1.64,-1.726 -2.45,-4 -2.45,-6.828 v -18.836 c 0,-1.632 0.06,-2.918 0.18,-3.859 0.13,-0.941 0.46,-1.695 0.99,-2.262 0.54,-0.566 1.46,-1.086 2.78,-1.55 1.32,-0.477 3.14,-1.055 5.46,-1.747 8.73,-2.636 15.48,-4.882 20.26,-6.73 4.76,-1.856 8.19,-3.852 10.26,-5.984 2.07,-2.133 3.31,-4.911 3.72,-8.332 0.41,-3.426 0.62,-8.024 0.62,-13.797 v -14.504 c 0,-10.422 -3.15,-18.836 -9.43,-25.242 -6.28,-6.403 -14.75,-9.602 -25.43,-9.602"
         style="fill:#1b5034;fill-opacity:1;fill-rule:nonzero;stroke:none"
         id="path16" />
      <path
         d="m 2402.17,721.262 v 115.84 h -20.72 v 25.421 h 66.87 v -25.421 h -20.73 v -115.84 h -25.42"
         style="fill:#1b5034;fill-opacity:1;fill-rule:nonzero;stroke:none"
         id="path18" />
      <path
         d="m 2531.38,768.727 h 14.32 l -8.66,59.523 h 3.39 z m -33.15,-47.465 26.75,141.261 h 27.5 l 26.18,-141.261 h -26 l -3.19,22.035 h -21.86 l -3.38,-22.035 h -26"
         style="fill:#1b5034;fill-opacity:1;fill-rule:nonzero;stroke:none"
         id="path20" />
      <path
         d="m 2620.66,746.691 h 9.42 c 3.01,0 5.34,0.86 6.97,2.586 1.63,1.731 2.45,4.004 2.45,6.828 v 71.579 c 0,2.824 -0.82,5.101 -2.45,6.824 -1.63,1.726 -3.96,2.594 -6.97,2.594 h -9.42 z m -25.43,-25.429 v 141.261 h 34.85 c 10.67,0 19.15,-3.179 25.43,-9.554 6.27,-6.371 9.41,-14.805 9.41,-25.285 v -71.579 c 0,-10.421 -3.14,-18.832 -9.41,-25.242 -6.28,-6.398 -14.76,-9.601 -25.43,-9.601 h -34.85"
         style="fill:#1b5034;fill-opacity:1;fill-rule:nonzero;stroke:none"
         id="path22" />
      <path
         d="m 2701.66,721.262 -26.75,141.261 h 26 l 16.2,-105.285 h -3.39 l 15.62,105.285 h 26 l -26.18,-141.261 h -27.5"
         style="fill:#1b5034;fill-opacity:1;fill-rule:nonzero;stroke:none"
         id="path24" />
      <path
         d="m 2790.37,768.727 h 14.31 l -8.66,59.523 h 3.39 z m -33.16,-47.465 26.75,141.261 h 27.5 l 26.18,-141.261 h -25.99 l -3.2,22.035 h -21.85 l -3.39,-22.035 h -26"
         style="fill:#1b5034;fill-opacity:1;fill-rule:nonzero;stroke:none"
         id="path26" />
      <path
         d="m 2854.22,721.262 v 141.261 h 18.83 l 32.21,-91.535 -6.78,-0.191 v 91.726 h 23.55 V 721.262 h -18.84 l -32.21,91.543 6.78,0.183 v -91.726 h -23.54"
         style="fill:#1b5034;fill-opacity:1;fill-rule:nonzero;stroke:none"
         id="path28" />
      <path
         d="m 3017.15,760.625 v -7.531 c 0,-10.422 -3.14,-18.836 -9.42,-25.242 -6.28,-6.403 -14.75,-9.602 -25.43,-9.602 -10.61,0 -19.07,3.199 -25.38,9.602 -6.31,6.406 -9.46,14.82 -9.46,25.242 v 77.601 c 0,10.489 3.15,18.914 9.46,25.285 6.31,6.375 14.77,9.563 25.38,9.563 10.68,0 19.15,-3.188 25.43,-9.563 6.28,-6.371 9.42,-14.796 9.42,-25.285 v -7.535 h -25.43 v 7.535 c 0,2.828 -0.81,5.102 -2.45,6.828 -1.64,1.727 -3.95,2.59 -6.97,2.59 -3.02,0 -5.33,-0.863 -6.97,-2.59 -1.63,-1.726 -2.44,-4 -2.44,-6.828 v -77.601 c 0,-2.824 0.81,-5.106 2.44,-6.828 1.64,-1.731 3.95,-2.594 6.97,-2.594 3.02,0 5.33,0.863 6.97,2.594 1.64,1.722 2.45,4.004 2.45,6.828 v 7.531 h 25.43"
         style="fill:#1b5034;fill-opacity:1;fill-rule:nonzero;stroke:none"
         id="path30" />
      <path
         d="m 3095.69,862.523 v -25.421 h -32.96 v -28.254 h 27.87 v -25.43 h -27.87 v -36.727 h 32.96 v -25.429 h -58.39 v 141.261 h 58.39"
         style="fill:#1b5034;fill-opacity:1;fill-rule:nonzero;stroke:none"
         id="path32" />
      <path
         d="m 3143.15,746.691 h 9.42 c 3.01,0 5.34,0.86 6.97,2.586 1.63,1.731 2.45,4.004 2.45,6.828 v 71.579 c 0,2.824 -0.82,5.101 -2.45,6.824 -1.63,1.726 -3.96,2.594 -6.97,2.594 h -9.42 z m -25.43,-25.429 v 141.261 h 34.85 c 10.67,0 19.15,-3.179 25.43,-9.554 6.27,-6.371 9.41,-14.805 9.41,-25.285 v -71.579 c 0,-10.421 -3.14,-18.832 -9.41,-25.242 -6.28,-6.398 -14.76,-9.601 -25.43,-9.601 h -34.85"
         style="fill:#1b5034;fill-opacity:1;fill-rule:nonzero;stroke:none"
         id="path34" />
      <path
         d="m 3282.72,746.691 h 9.42 c 3.01,0 5.34,0.86 6.97,2.586 1.63,1.731 2.45,4.004 2.45,6.828 v 71.579 c 0,2.824 -0.82,5.101 -2.45,6.824 -1.63,1.726 -3.96,2.594 -6.97,2.594 h -9.42 z m -25.43,-25.429 v 141.261 h 34.85 c 10.67,0 19.15,-3.179 25.43,-9.554 6.27,-6.371 9.41,-14.805 9.41,-25.285 v -71.579 c 0,-10.421 -3.14,-18.832 -9.41,-25.242 -6.28,-6.398 -14.76,-9.601 -25.43,-9.601 h -34.85"
         style="fill:#1b5034;fill-opacity:1;fill-rule:nonzero;stroke:none"
         id="path36" />
      <path
         d="m 3410.05,862.523 v -25.421 h -32.96 v -28.254 h 27.87 v -25.43 h -27.87 v -36.727 h 32.96 v -25.429 h -58.39 v 141.261 h 58.39"
         style="fill:#1b5034;fill-opacity:1;fill-rule:nonzero;stroke:none"
         id="path38" />
      <path
         d="m 3490.48,862.523 v -25.421 h -32.96 v -28.254 h 27.87 v -25.43 h -27.87 v -36.727 h 32.96 v -25.429 h -58.39 v 141.261 h 58.39"
         style="fill:#1b5034;fill-opacity:1;fill-rule:nonzero;stroke:none"
         id="path40" />
      <path
         d="m 3537.94,799.43 h 9.41 c 3.02,0 5.34,0.859 6.97,2.59 1.63,1.726 2.45,4.003 2.45,6.828 v 18.836 c 0,2.824 -0.82,5.101 -2.45,6.824 -1.63,1.726 -3.95,2.594 -6.97,2.594 h -9.41 z m -25.43,-78.168 v 141.261 h 34.84 c 10.67,0 19.15,-3.179 25.43,-9.554 6.28,-6.371 9.41,-14.805 9.41,-25.285 v -18.836 c 0,-10.422 -3.13,-18.836 -9.41,-25.243 -6.28,-6.402 -14.76,-9.605 -25.43,-9.605 h -9.41 v -52.738 h -25.43"
         style="fill:#1b5034;fill-opacity:1;fill-rule:nonzero;stroke:none"
         id="path42" />
      <path
         d="m 2175.77,674.172 v -25.426 h -32.96 v -28.254 h 27.87 v -25.429 h -27.87 v -36.727 h 32.96 v -25.43 h -58.39 v 141.266 h 58.39"
         style="fill:#1b5034;fill-opacity:1;fill-rule:nonzero;stroke:none"
         id="path44" />
      <path
         d="m 2186.88,532.906 26.75,70.637 -26.75,70.629 h 26 l 17.89,-46.899 h -8.1 l 17.52,46.899 h 25.99 l -26.55,-70.629 26.55,-70.637 h -25.99 l -17.52,46.899 h 8.1 l -17.89,-46.899 h -26"
         style="fill:#1b5034;fill-opacity:1;fill-rule:nonzero;stroke:none"
         id="path46" />
      <path
         d="m 2291.61,532.906 v 115.84 h -20.72 v 25.426 h 66.86 v -25.426 h -20.72 v -115.84 h -25.42"
         style="fill:#1b5034;fill-opacity:1;fill-rule:nonzero;stroke:none"
         id="path48" />
      <path
         d="m 2378.82,607.305 h 9.41 c 3.02,0 5.34,0.867 6.97,2.593 1.63,1.723 2.45,4 2.45,6.829 v 22.601 c 0,2.824 -0.82,5.102 -2.45,6.824 -1.63,1.731 -3.95,2.594 -6.97,2.594 h -9.41 z m -25.43,-74.399 v 141.266 h 34.84 c 10.67,0 19.15,-3.184 25.43,-9.559 6.28,-6.371 9.41,-14.8 9.41,-25.285 v -22.601 c 0,-6.657 -1.32,-12.528 -3.95,-17.614 -2.64,-5.086 -6.4,-9.199 -11.3,-12.336 l -1.89,8.286 c 5.47,-1.946 9.69,-4.833 12.67,-8.665 2.99,-3.828 4.47,-8.476 4.47,-13.941 v -39.551 h -25.42 v 39.551 c 0,2.828 -0.82,5.102 -2.45,6.832 -1.63,1.727 -3.95,2.594 -6.97,2.594 h -9.41 v -48.977 h -25.43"
         style="fill:#1b5034;fill-opacity:1;fill-rule:nonzero;stroke:none"
         id="path50" />
      <path
         d="m 2470.54,580.371 h 14.32 l -8.66,59.524 h 3.39 z m -33.15,-47.465 26.75,141.266 h 27.5 l 26.18,-141.266 h -26 l -3.19,22.039 h -21.86 l -3.38,-22.039 h -26"
         style="fill:#1b5034;fill-opacity:1;fill-rule:nonzero;stroke:none"
         id="path52" />
      <path
         d="m 2563.4,529.891 c -10.62,0 -19.08,3.203 -25.39,9.609 -6.3,6.402 -9.46,14.813 -9.46,25.242 v 77.598 c 0,10.488 3.16,18.918 9.46,25.289 6.31,6.371 14.77,9.559 25.39,9.559 10.67,0 19.15,-3.188 25.43,-9.559 6.27,-6.371 9.41,-14.801 9.41,-25.289 v -7.535 h -25.43 v 7.535 c 0,2.828 -0.81,5.101 -2.44,6.832 -1.64,1.723 -3.96,2.586 -6.97,2.586 -3.02,0 -5.34,-0.863 -6.98,-2.586 -1.63,-1.731 -2.44,-4.004 -2.44,-6.832 v -77.598 c 0,-2.832 0.81,-5.105 2.44,-6.836 1.64,-1.718 3.96,-2.59 6.98,-2.59 3.01,0 5.33,0.872 6.97,2.59 1.63,1.731 2.44,4.004 2.44,6.836 v 13.367 h -11.87 v 25.434 h 37.3 v -38.801 c 0,-10.429 -3.14,-18.84 -9.41,-25.242 -6.28,-6.406 -14.76,-9.609 -25.43,-9.609"
         style="fill:#1b5034;fill-opacity:1;fill-rule:nonzero;stroke:none"
         id="path54" />
      <path
         d="m 2644.02,580.371 h 14.32 l -8.67,59.524 h 3.39 z m -33.15,-47.465 26.74,141.266 h 27.5 l 26.19,-141.266 h -26 l -3.19,22.039 h -21.86 l -3.39,-22.039 h -25.99"
         style="fill:#1b5034;fill-opacity:1;fill-rule:nonzero;stroke:none"
         id="path56" />
      <path
         d="M 2733.3,674.172 V 558.336 h 29.19 v -25.43 h -54.62 v 141.266 h 25.43"
         style="fill:#1b5034;fill-opacity:1;fill-rule:nonzero;stroke:none"
         id="path58" />
      <path
         d="m 2801.29,580.371 h 14.31 l -8.66,59.524 h 3.39 z m -33.16,-47.465 26.75,141.266 h 27.5 l 26.18,-141.266 h -25.99 l -3.2,22.039 h -21.85 l -3.39,-22.039 h -26"
         style="fill:#1b5034;fill-opacity:1;fill-rule:nonzero;stroke:none"
         id="path60" />
      <path
         d="m 2928.99,572.273 v -7.531 c 0,-10.429 -3.13,-18.84 -9.41,-25.242 -6.28,-6.406 -14.76,-9.609 -25.43,-9.609 -10.62,0 -19.07,3.203 -25.38,9.609 -6.31,6.402 -9.47,14.813 -9.47,25.242 v 77.598 c 0,10.488 3.16,18.918 9.47,25.289 6.31,6.371 14.76,9.559 25.38,9.559 10.67,0 19.15,-3.188 25.43,-9.559 6.28,-6.371 9.41,-14.801 9.41,-25.289 v -7.535 h -25.43 v 7.535 c 0,2.828 -0.81,5.101 -2.44,6.832 -1.64,1.723 -3.95,2.586 -6.97,2.586 -3.02,0 -5.33,-0.863 -6.98,-2.586 -1.63,-1.731 -2.44,-4.004 -2.44,-6.832 v -77.598 c 0,-2.832 0.81,-5.105 2.44,-6.836 1.65,-1.718 3.96,-2.59 6.98,-2.59 3.02,0 5.33,0.872 6.97,2.59 1.63,1.731 2.44,4.004 2.44,6.836 v 7.531 h 25.43"
         style="fill:#1b5034;fill-opacity:1;fill-rule:nonzero;stroke:none"
         id="path62" />
      <path
         d="m 2958.01,532.906 v 115.84 h -20.73 v 25.426 h 66.87 v -25.426 h -20.73 v -115.84 h -25.41"
         style="fill:#1b5034;fill-opacity:1;fill-rule:nonzero;stroke:none"
         id="path64" />
      <path
         d="m 3045.21,532.906 h -25.43 v 141.266 h 25.43 V 532.906"
         style="fill:#1b5034;fill-opacity:1;fill-rule:nonzero;stroke:none"
         id="path66" />
      <path
         d="m 3140.32,572.273 v -7.531 c 0,-10.429 -3.14,-18.84 -9.41,-25.242 -6.28,-6.406 -14.76,-9.609 -25.43,-9.609 -10.62,0 -19.08,3.203 -25.39,9.609 -6.3,6.402 -9.46,14.813 -9.46,25.242 v 77.598 c 0,10.488 3.16,18.918 9.46,25.289 6.31,6.371 14.77,9.559 25.39,9.559 10.67,0 19.15,-3.188 25.43,-9.559 6.27,-6.371 9.41,-14.801 9.41,-25.289 v -7.535 h -25.43 v 7.535 c 0,2.828 -0.81,5.101 -2.44,6.832 -1.64,1.723 -3.96,2.586 -6.97,2.586 -3.02,0 -5.34,-0.863 -6.98,-2.586 -1.63,-1.731 -2.44,-4.004 -2.44,-6.832 v -77.598 c 0,-2.832 0.81,-5.105 2.44,-6.836 1.64,-1.718 3.96,-2.59 6.98,-2.59 3.01,0 5.33,0.872 6.97,2.59 1.63,1.731 2.44,4.004 2.44,6.836 v 7.531 h 25.43"
         style="fill:#1b5034;fill-opacity:1;fill-rule:nonzero;stroke:none"
         id="path68" />
      <path
         d="m 2147.7,341.527 c -10.6,0 -19.07,3.203 -25.38,9.614 -6.31,6.406 -9.46,14.812 -9.46,25.242 v 7.527 h 25.43 v -7.527 c 0,-2.832 0.81,-5.11 2.45,-6.836 1.63,-1.719 3.95,-2.586 6.96,-2.586 3.02,0 5.34,0.867 6.97,2.586 1.64,1.726 2.46,4.004 2.46,6.836 v 14.504 c 0,1.629 -0.07,2.918 -0.2,3.855 -0.13,0.946 -0.45,1.699 -0.99,2.266 -0.53,0.555 -1.44,1.086 -2.73,1.555 -1.28,0.464 -3.12,1.042 -5.51,1.738 -8.72,2.637 -15.48,4.883 -20.24,6.734 -4.78,1.848 -8.2,3.84 -10.27,5.981 -2.07,2.136 -3.31,4.91 -3.72,8.339 -0.41,3.418 -0.61,8.016 -0.61,13.79 v 18.835 c 0,10.489 3.15,18.918 9.46,25.286 6.31,6.375 14.78,9.558 25.38,9.558 10.68,0 19.15,-3.183 25.43,-9.558 6.28,-6.368 9.43,-14.797 9.43,-25.286 v -7.531 h -25.43 v 7.531 c 0,2.825 -0.82,5.098 -2.46,6.829 -1.63,1.726 -3.95,2.593 -6.97,2.593 -3.01,0 -5.33,-0.867 -6.96,-2.593 -1.64,-1.731 -2.45,-4.004 -2.45,-6.829 v -18.835 c 0,-1.633 0.06,-2.922 0.18,-3.86 0.13,-0.937 0.46,-1.699 0.99,-2.258 0.54,-0.562 1.46,-1.082 2.78,-1.558 1.32,-0.469 3.14,-1.047 5.46,-1.739 8.73,-2.636 15.48,-4.882 20.26,-6.742 4.76,-1.843 8.19,-3.836 10.26,-5.972 2.07,-2.141 3.31,-4.914 3.72,-8.332 0.41,-3.426 0.62,-8.028 0.62,-13.797 v -14.504 c 0,-10.43 -3.15,-18.836 -9.43,-25.242 -6.28,-6.411 -14.75,-9.614 -25.43,-9.614"
         style="fill:#1b5034;fill-opacity:1;fill-rule:nonzero;stroke:none"
         id="path70" />
      <path
         d="M 2273.72,485.816 V 376.383 c 0,-10.43 -3.15,-18.836 -9.42,-25.242 -6.28,-6.411 -14.75,-9.614 -25.43,-9.614 -10.61,0 -19.07,3.203 -25.38,9.614 -6.31,6.406 -9.46,14.812 -9.46,25.242 v 109.433 h 25.42 V 376.383 c 0,-2.832 0.82,-5.11 2.45,-6.836 1.63,-1.719 3.96,-2.586 6.97,-2.586 3.01,0 5.34,0.867 6.97,2.586 1.64,1.726 2.45,4.004 2.45,6.836 v 109.433 h 25.43"
         style="fill:#1b5034;fill-opacity:1;fill-rule:nonzero;stroke:none"
         id="path72" />
      <path
         d="m 2325.7,418.949 h 9.41 c 3.02,0 5.35,0.864 6.98,2.59 1.63,1.731 2.45,4.004 2.45,6.824 v 22.61 c 0,2.824 -0.82,5.097 -2.45,6.828 -1.63,1.719 -3.96,2.586 -6.98,2.586 h -9.41 z m -25.43,-74.402 v 141.269 h 34.84 c 10.68,0 19.15,-3.191 25.43,-9.558 6.28,-6.379 9.42,-14.809 9.42,-25.285 v -22.61 c 0,-6.656 -1.32,-12.527 -3.96,-17.605 -2.63,-5.086 -6.39,-9.199 -11.3,-12.344 l -1.88,8.293 c 5.47,-1.945 9.69,-4.836 12.67,-8.664 2.98,-3.836 4.47,-8.477 4.47,-13.945 v -39.551 h -25.42 v 39.551 c 0,2.832 -0.82,5.109 -2.45,6.836 -1.63,1.718 -3.96,2.589 -6.98,2.589 h -9.41 v -48.976 h -25.43"
         style="fill:#1b5034;fill-opacity:1;fill-rule:nonzero;stroke:none"
         id="path74" />
      <path
         d="m 2411.02,344.547 -26.75,141.269 h 26 l 16.2,-105.293 h -3.39 l 15.63,105.293 h 25.99 l -26.18,-141.269 h -27.5"
         style="fill:#1b5034;fill-opacity:1;fill-rule:nonzero;stroke:none"
         id="path76" />
      <path
         d="m 2539.67,485.816 v -25.429 h -32.96 v -28.25 h 27.87 v -25.43 h -27.87 v -36.73 h 32.96 v -25.43 h -58.39 v 141.269 h 58.39"
         style="fill:#1b5034;fill-opacity:1;fill-rule:nonzero;stroke:none"
         id="path78" />
      <path
         d="m 2578.09,344.547 v 64.043 l -29.57,77.226 h 26 l 19.96,-59.707 h -7.16 l 19.41,59.707 h 25.98 l -29.19,-77.226 v -64.043 h -25.43"
         style="fill:#1b5034;fill-opacity:1;fill-rule:nonzero;stroke:none"
         id="path80" />
      <path
         d="m 455.93,864.547 -35.117,-11.672 c -2.04,-0.68 -3.637,-2.277 -4.317,-4.316 l -11.668,-35.118 c -2.066,-6.214 -10.859,-6.214 -12.926,0 l -11.855,35.301 c -0.676,2.039 -2.09,3.453 -4.129,4.133 l -35.117,11.672 c -6.215,2.062 -6.399,11.039 -0.184,13.105 l 35.301,11.489 c 2.039,0.675 3.637,2.277 4.312,4.312 l 11.672,35.117 c 2.067,6.215 10.86,6.215 12.926,0 l 11.485,-34.933 c 0.679,-2.039 2.46,-3.821 4.5,-4.496 l 35.117,-11.672 c 6.215,-2.067 6.215,-10.86 0,-12.922 z M 482.766,1168.55 21.2891,902.117 c -7.4532,-4.301 -7.4493,-15.054 0,-19.355 l 417.7189,-241.094 48.137,-13.574 12.226,48.136 0.156,482.64 c 0,8.6 -9.312,13.98 -16.761,9.68"
         style="fill:#2d9b5d;fill-opacity:1;fill-rule:nonzero;stroke:none"
         id="path82" />
      <path
         d="m 879.504,817.492 48.332,27.895 c -27.684,20.883 -68.121,26.683 -91.625,-11.008 1.805,-2.981 6.121,-5.004 12.562,-6.934 12.633,-0.457 22.778,-4.129 30.731,-9.953"
         style="fill:#2d9b5d;fill-opacity:1;fill-rule:nonzero;stroke:none"
         id="path84" />
      <path
         d="m 649.297,956.574 c -34.813,-58.023 -49.649,-108.66 -38.043,-178.285 10.074,-33.586 22.07,-62.203 44.066,-90.184 l 58.903,33.993 c -83.989,118.113 9.777,245.5 134.625,263.007 l -99.293,57.335 c -37.02,-18.51 -74.375,-48.889 -100.258,-85.866"
         style="fill:#2d9b5d;fill-opacity:1;fill-rule:nonzero;stroke:none"
         id="path86" />
      <path
         d="m 717.988,877.902 c -21.14,-42.277 -11.566,-107.804 19.399,-142.433 l 44.574,25.722 c -3.981,5.872 -5.867,11.965 -8.434,17.098 -23.211,81.231 69.625,127.645 127.645,104.438 16.68,-7.149 30.871,-16.774 42.656,-28.11 l 48.762,28.145 c 7.45,4.301 7.45,15.054 0.004,19.355 l -112.758,65.102 c -61.258,0.14 -133.359,-34.489 -161.848,-89.317"
         style="fill:#2d9b5d;fill-opacity:1;fill-rule:nonzero;stroke:none"
         id="path88" />
      <path
         d="M 579.434,1042.01 C 551.602,1011.08 528.078,963.145 514.422,931.637 L 514.5,705.348 v -10.727 l 0.008,-18.391 12.226,-48.136 48.137,13.574 61.555,35.527 c -39.981,66.176 -58.531,141.649 -36.961,217.133 25.242,67.324 74.957,122.332 135.746,156.382 l -88.527,51.12 c -22.926,-16.79 -47.875,-36.14 -67.25,-59.82"
         style="fill:#2d9b5d;fill-opacity:1;fill-rule:nonzero;stroke:none"
         id="path90" />
      <path
         d="m 611.066,1091.6 c 7.18,6.38 14.602,12.35 22.2,17.97 l -102.153,58.98 c -7.453,4.3 -16.765,-1.08 -16.761,-9.68 l 0.066,-191.651 c 19.879,52.091 52.117,86.211 96.648,124.381"
         style="fill:#2d9b5d;fill-opacity:1;fill-rule:nonzero;stroke:none"
         id="path92" />
      <path
         d="m 741.121,230.324 -20.601,-6.847 c -1.196,-0.399 -2.133,-1.336 -2.532,-2.532 l -6.847,-20.601 c -1.211,-3.649 -6.371,-3.649 -7.582,0 l -6.848,20.601 c -0.398,1.196 -1.336,2.133 -2.531,2.532 l -20.602,6.847 c -3.648,1.211 -3.648,6.371 0,7.582 l 20.602,6.848 c 1.195,0.398 2.133,1.336 2.531,2.531 l 6.848,20.602 c 1.211,3.644 6.371,3.644 7.582,0 l 6.847,-20.602 c 0.399,-1.195 1.336,-2.133 2.532,-2.531 l 20.601,-6.848 c 3.649,-1.211 3.649,-6.371 0,-7.582 z m -75.574,99.176 -9.567,28.781 c -0.554,1.672 -1.863,2.981 -3.535,3.535 l -28.781,9.567 c -5.094,1.691 -5.094,8.898 0,10.594 l 28.781,9.562 c 1.672,0.555 2.981,1.867 3.535,3.535 l 9.567,28.781 c 1.695,5.098 8.898,5.098 10.594,0 l 9.566,-28.781 c 0.555,-1.668 1.863,-2.98 3.535,-3.535 l 28.781,-9.562 c 5.094,-1.696 5.094,-8.903 0,-10.594 l -28.781,-9.567 c -1.672,-0.554 -2.98,-1.863 -3.535,-3.535 L 676.141,329.5 c -1.696,-5.094 -8.899,-5.094 -10.594,0 z M 574.871,543.223 526.734,556.797 514.508,508.66 514.352,26.0195 c -0.004,-8.5976 9.308,-13.9804 16.761,-9.6797 L 992.59,282.773 c 7.45,4.301 7.45,15.055 0,19.356 L 574.871,543.223"
         style="fill:#1b5034;fill-opacity:1;fill-rule:nonzero;stroke:none"
         id="path94" />
      <path
         d="m 658.613,671.965 c 54.157,-61.168 135.473,-97.652 219.352,-56.137 77.621,38.422 115.23,127.293 71.086,206.25 -2.258,3.387 -6.313,9.285 -9.172,12.395 l -49.227,-28.442 c 12.219,-17.465 20.918,-38.605 17.868,-60.265 -2.442,-17.309 -12.2,-32.504 -25.176,-43.903 -16.852,-14.804 -38.805,-23.054 -61.141,-24.015 -21.082,-0.907 -41.777,0.121 -61.644,8.062 -13.571,5.426 -25.891,13.653 -36.118,24.09 l -65.828,-38.035"
         style="fill:#1b5034;fill-opacity:1;fill-rule:nonzero;stroke:none"
         id="path96" />
      <path
         d="m 796.531,721.773 c 3.25,3.25 3.641,13.696 -6.383,26.192 L 746.477,722.73 c 19.031,-12.824 29.773,-13.843 50.054,-0.957"
         style="fill:#1b5034;fill-opacity:1;fill-rule:nonzero;stroke:none"
         id="path98" />
      <path
         d="m 998.719,868.473 -42.406,-24.5 c 36.105,-43.946 40.785,-110.782 15.457,-161.442 -23.207,-46.414 -64.899,-87.113 -122.922,-98.718 -81.227,-11.602 -156.551,8.808 -202.969,78.433 -0.379,0.57 -0.727,1.156 -1.102,1.727 l -63.961,-36.957 -13.218,-12.879 c 45.207,-53.625 102.507,-85.106 171.84,-104.914 108.855,-21.774 203.835,14.664 276.042,86.875 v 262.699 c 0,8.601 -9.31,13.976 -16.761,9.676"
         style="fill:#1b5034;fill-opacity:1;fill-rule:nonzero;stroke:none"
         id="path100" />
      <path
         d="m 622.672,546.203 c -23.391,18.715 -43.531,39.785 -60.664,62.488 l -16.766,-16.332 35.824,-34.898 269.993,-155.934 c 0.777,-0.445 4.214,0.7 5.152,0.864 2.031,0.351 4.062,0.722 6.09,1.101 29.887,5.641 59.234,14.348 87.316,26.035 22.91,9.539 45.074,20.985 65.863,34.547 V 564.848 C 932.23,473.688 759.5,446.691 622.672,546.203"
         style="fill:#1b5034;fill-opacity:1;fill-rule:nonzero;stroke:none"
         id="path102" />
      <path
         d="m 1010.17,436.875 c -1.68,-1.176 -3.4,-2.219 -5.17,-3.25 -26.219,-15.223 -54.09,-27.461 -83.305,-35.648 -3.398,-0.954 -6.808,-1.848 -10.257,-2.602 -12.649,-2.949 -25.481,-5.055 -38.375,-6.551 L 998.719,316.25 c 7.451,-4.305 16.761,1.074 16.761,9.676 0,0 0,114.683 0,114.687 0,-0.683 -4.63,-3.258 -5.31,-3.738"
         style="fill:#1b5034;fill-opacity:1;fill-rule:nonzero;stroke:none"
         id="path104" />
      <path
         d="m 470.242,592.359 -35.578,34.657 -52.234,30.179 -10.297,5.953 -43.297,25.016 c 5.793,-15.375 8.148,-31.676 6.562,-47.547 -6.074,-42.551 -31.234,-79.5 -69.07,-101.711 -22.223,-13.054 -46.719,-19.687 -71.039,-19.687 -16.078,0 -32.086,2.894 -47.328,8.758 -57.0782,25.351 -99.1719,82.367 -105.1329,142.015 -0.4414,4.442 2.7383,8.43 7.1602,8.992 4.4414,0.547 8.4961,-2.5 9.1797,-6.914 10.9297,-71.082 75.863,-139.679 155.223,-128.25 48.906,12.27 83.129,42.215 93.074,81.981 3.433,24.347 2.637,70.488 -43.106,96.629 -11.914,5.945 -39.164,9.047 -56.187,-1.457 -5.629,-3.473 -9.496,-8.059 -11.668,-13.868 25.48,9.051 60.84,16.09 79.309,-20.855 11.285,-22.57 11.171,-46.82 -0.325,-68.297 -12.508,-23.367 -37.328,-40.019 -64.789,-43.453 -36.39,-0.191 -62.707,11.195 -89.105,37.605 -25.3635,31.625 -32.6487,75.125 -19.621,114.2 11.347,25.582 30.125,47 52.879,62.383 L 16.7656,868.473 C 9.31641,872.777 0,867.398 0,858.797 V 325.926 c 0,-8.602 9.3125,-13.977 16.7656,-9.676 l 417.6484,241.211 35.828,34.898"
         style="fill:#1b5034;fill-opacity:1;fill-rule:nonzero;stroke:none"
         id="path106" />
      <path
         d="m 206.883,758.625 -30.555,17.652 c -17.308,-8.547 -32.226,-19.992 -41.543,-38.629 -19.82,-39.632 -20.012,-95.492 26.375,-124.492 24.219,-14.543 52.86,-5.164 72.625,11.567 -0.023,0.105 -0.058,0.203 -0.082,0.3 -0.265,0.95 -0.394,1.879 -0.433,2.782 -22.563,-13.367 -52.293,-10.457 -70.543,7.808 -17.75,23.524 -21.274,50.887 -10.43,75.95 9.988,23.093 30.246,40.277 54.586,47.062"
         style="fill:#1b5034;fill-opacity:1;fill-rule:nonzero;stroke:none"
         id="path108" />
      <path
         d="m 322.684,226.285 172.679,104.16 V 506.301 L 483.051,554.773 435.254,541.297 287.328,455.953 265.195,263.23 362.16,460.531 c 18.121,12.973 20.031,-9.195 20.031,-9.195 l -85.586,-202.449 148.614,161.98 c 25.023,9.227 16.633,-14.437 16.633,-14.437 L 322.684,226.285"
         style="fill:#1b5034;fill-opacity:1;fill-rule:nonzero;stroke:none"
         id="path110" />
      <path
         d="M 143.109,372.578 196.859,263.23 181.707,395.02 Z"
         style="fill:#1b5034;fill-opacity:1;fill-rule:nonzero;stroke:none"
         id="path112" />
      <path
         d="m 492.336,17.1211 c 0.324,-0.1797 0.309,-0.2813 0.613,-0.2813 l 1.223,1.9805 c 1.262,1.2578 1.262,2.961 1.262,3.8281 v 33.293 L 366.52,89.8711 492.336,17.1211"
         style="fill:#1b5034;fill-opacity:1;fill-rule:nonzero;stroke:none"
         id="path114" />
      <path
         d="m 495.434,160.012 v 50.976 L 351.078,164.121 Z"
         style="fill:#1b5034;fill-opacity:1;fill-rule:nonzero;stroke:none"
         id="path116" />
      <path
         d="m 341.359,197.25 154.075,40.523 -0.071,64.735 z"
         style="fill:#1b5034;fill-opacity:1;fill-rule:nonzero;stroke:none"
         id="path118" />
      <path
         d="M 231.027,268.145 260.855,440.68 206.609,409.387 Z"
         style="fill:#1b5034;fill-opacity:1;fill-rule:nonzero;stroke:none"
         id="path120" />
      <path
         d="M 495.363,133.691 351.078,129.602 495.363,82.7305 Z"
         style="fill:#1b5034;fill-opacity:1;fill-rule:nonzero;stroke:none"
         id="path122" />
      <path
         d="m 83.418,338.313 82.031,-89.426 -46.476,109.941 z"
         style="fill:#1b5034;fill-opacity:1;fill-rule:nonzero;stroke:none"
         id="path124" />
      <path
         d="m 19.793,301.605 119.57,-75.32 -80.7107,97.742 z"
         style="fill:#1b5034;fill-opacity:1;fill-rule:nonzero;stroke:none"
         id="path126" />
      <path
         d="m 1523.57,695.102 h -26.66 V 481.836 h 26.66 c 8.6,0 15.37,2.613 20.29,7.883 4.92,5.265 7.38,12.207 7.38,20.812 v 155.86 c 0,8.621 -2.46,15.547 -7.38,20.812 -4.92,5.266 -11.69,7.899 -20.29,7.899"
         style="fill:#1b5034;fill-opacity:1;fill-rule:nonzero;stroke:none"
         id="path128" />
      <path
         d="m 1310.89,534.32 h 42.46 l -20.97,124.368 z"
         style="fill:#1b5034;fill-opacity:1;fill-rule:nonzero;stroke:none"
         id="path130" />
      <path
         d="m 1955.02,658.602 h -47.17 v 14.355 c 0,8.606 -2.46,15.547 -7.38,20.813 -4.92,5.265 -11.68,7.898 -20.3,7.898 -8.62,0 -15.37,-2.633 -20.29,-7.898 -4.92,-5.266 -7.4,-12.207 -7.4,-20.813 v -35.684 c 0,-4.921 0.17,-8.793 0.52,-11.582 0.34,-2.808 1.3,-5.062 2.87,-6.773 1.58,-1.707 4.27,-3.32 8.1,-4.824 3.82,-1.504 9.23,-3.34 16.2,-5.535 18.73,-5.735 33.23,-10.625 43.48,-14.653 10.25,-4.043 17.6,-8.383 22.05,-13.023 4.43,-4.656 7.1,-10.672 7.99,-18.055 0.9,-7.383 1.33,-17.426 1.33,-30.137 V 503.98 c 0,-22.695 -6.77,-41.015 -20.29,-54.964 -13.54,-13.95 -31.72,-20.922 -54.56,-20.922 -22.69,0 -40.84,6.972 -54.44,20.922 -13.61,13.949 -20.41,32.269 -20.41,54.964 v 14.356 h 47.16 V 503.98 c 0,-8.621 2.48,-15.562 7.4,-20.812 4.92,-5.27 11.67,-7.902 20.29,-7.902 8.62,0 15.38,2.632 20.3,7.902 4.92,5.25 7.38,12.191 7.38,20.812 v 28.711 c 0,4.918 -0.2,8.778 -0.61,11.582 -0.41,2.805 -1.4,5.094 -2.98,6.864 -1.57,1.785 -4.23,3.386 -7.99,4.828 -3.76,1.426 -9.12,3.242 -16.1,5.437 -18.73,5.875 -33.22,10.797 -43.47,14.762 -10.25,3.965 -17.6,8.262 -22.05,12.914 -4.44,4.656 -7.1,10.703 -8,18.149 -0.89,7.445 -1.33,17.461 -1.33,30.046 v 35.684 c 0,22.836 6.8,41.188 20.41,55.059 13.6,13.867 31.75,20.812 54.44,20.812 22.84,0 41.02,-6.945 54.56,-20.812 13.52,-13.871 20.29,-32.223 20.29,-55.059 z m -180.85,36.5 h -78.96 v -76.903 h 67.88 v -47.16 h -67.88 v -89.203 h 78.96 V 434.66 h -126.14 v 307.617 h 126.14 z M 1598.42,510.531 c 0,-22.695 -6.77,-41.015 -20.3,-54.949 -13.54,-13.949 -31.72,-20.922 -54.55,-20.922 h -73.84 v 307.617 h 73.84 c 22.83,0 41.01,-6.945 54.55,-20.828 13.53,-13.871 20.3,-32.222 20.3,-55.058 z m -228.66,-75.871 -9.03,52.5 h -57.22 l -9.23,-52.5 h -48.4 l 61.13,307.617 h 50.85 l 60.29,-307.617 z m -152.98,73.203 c 0,-22.691 -6.77,-41.011 -20.31,-54.945 -13.53,-13.949 -31.72,-20.922 -54.54,-20.922 h -25.44 v 47.156 h 25.44 c 8.6,0 15.37,2.633 20.29,7.903 4.93,5.261 7.39,12.207 7.39,20.808 v 234.414 h 47.17 z m 821.01,388.356 -490.89,289.051 c -4.8,2.83 -10.76,2.83 -15.56,0 L 1040.45,896.219 c -4.68,-2.754 -7.55,-7.781 -7.55,-13.207 V 304.379 c 0,-5.43 2.87,-10.453 7.55,-13.207 L 1531.34,2.12109 c 4.8,-2.832028 10.76,-2.832028 15.56,0 L 2037.79,291.172 c 4.68,2.754 7.55,7.777 7.55,13.207 v 578.633 c 0,5.426 -2.87,10.453 -7.55,13.207"
         style="fill:#1b5034;fill-opacity:1;fill-rule:nonzero;stroke:none"
         id="path132" />
    </g>
  </g>
</svg>
